<svg width="61" height="52" viewBox="0 0 61 52" fill="none" xmlns="http://www.w3.org/2000/svg">
<path d="M28.414 28.197H11.384V42.703H28.414V28.197Z" stroke="#E9C664" stroke-width="3" stroke-linecap="round" stroke-linejoin="round"/>
<path d="M54.769 23.273V50.181" stroke="#E9C664" stroke-width="3" stroke-linecap="round" stroke-linejoin="round"/>
<path d="M6.00317 23.3081V50.1821" stroke="#E9C664" stroke-width="3" stroke-linecap="round" stroke-linejoin="round"/>
<path d="M59.194 14.577H1.573L8.173 1.5H52.506L56.676 9.652L59.194 14.577Z" stroke="#E9C664" stroke-width="3" stroke-linecap="round" stroke-linejoin="round"/>
<path d="M44.7399 18.486C44.7399 21.363 41.5129 23.697 37.5339 23.697C33.5549 23.697 30.3279 21.363 30.3279 18.486" stroke="#E9C664" stroke-width="3" stroke-linecap="round" stroke-linejoin="round"/>
<path d="M59.195 14.577L59.151 18.492C59.1303 19.5473 58.7146 20.5564 57.986 21.32C57.1102 22.2501 55.9983 22.9247 54.769 23.272C53.8521 23.5507 52.8992 23.6926 51.941 23.693C51.2327 23.694 50.5264 23.6196 49.834 23.471C48.3313 23.1756 46.9562 22.4242 45.896 21.319C45.1847 20.5795 44.7701 19.6043 44.731 18.579V14.579L59.195 14.577Z" stroke="#E9C664" stroke-width="3" stroke-linecap="round" stroke-linejoin="round"/>
<path d="M30.394 14.575L30.327 18.488C30.327 21.367 27.099 23.688 23.117 23.688C19.135 23.688 15.917 21.363 15.917 18.488" stroke="#E9C664" stroke-width="3" stroke-linecap="round" stroke-linejoin="round"/>
<path d="M1.5 18.488C1.5 20.677 3.363 22.538 6 23.307C6.87864 23.5655 7.79013 23.6952 8.706 23.692C12.688 23.692 15.916 21.367 15.916 18.492V14.575H1.578L1.5 18.488Z" stroke="#E9C664" stroke-width="3" stroke-linecap="round" stroke-linejoin="round"/>
<path d="M49.153 50.182V28.197H36.113V50.182" stroke="#E9C664" stroke-width="3" stroke-linecap="round" stroke-linejoin="round"/>
<path d="M59.194 50.1819H1.573" stroke="#E9C664" stroke-width="3" stroke-linecap="round" stroke-linejoin="round"/>
<path d="M44.575 38.173V40.205" stroke="#E9C664" stroke-width="3" stroke-linecap="round" stroke-linejoin="round"/>
</svg>
