<?xml version="1.0" encoding="UTF-8"?><svg id="a" xmlns="http://www.w3.org/2000/svg" viewBox="0 0 368.4 368.53"><defs><style>.b{fill:#e9c664;}</style></defs><path class="b" d="M368.4,172.65v23.03c.01,4.78-.97,8.88-1.54,13.21-10.73,81.06-76.83,147.37-158.02,157.96-4.33.56-9.07.44-13.22,1.54-7.62-.33-15.44.44-23.04,0C11.48,358.96-60.37,156.81,60.61,47.41c114.16-103.24,298.86-27.18,307.78,125.24ZM176.03,24.61C49.66,31.51-20.05,175.86,55.36,278.66c75.58,103.03,236.5,79.16,279.21-40.88,37.99-106.78-45.39-219.35-158.54-213.17Z"/><path class="b" d="M183.22,73.48c5.86-.47,12.23,4.53,13.05,10.35l.21,94.06,58.48,47.33c8.28,13.59-4.47,26.24-18.25,16.81-20.87-14.29-40.28-34.28-61.18-48.95-2.3-2.48-3.71-5.15-3.7-8.53.06-32.28.06-68.05.03-100.06.58-5.59,5.78-10.56,11.37-11Z"/></svg>