<?xml version="1.0" encoding="UTF-8"?><svg id="a" xmlns="http://www.w3.org/2000/svg" viewBox="0 0 652 322"><defs><style>.b{fill:#fcfcfd;}</style></defs><path class="b" d="M47.2,89.38v136.5h-17.58V89.38h17.58ZM65.23,225.87h-27.4l.18-14.91h27.22c9.31,0,17.08-2.03,23.3-6.09s10.91-9.78,14.06-17.16c3.15-7.37,4.73-16.03,4.73-25.97v-8.34c0-7.81-.9-14.75-2.7-20.81s-4.43-11.2-7.89-15.42c-3.46-4.22-7.68-7.41-12.66-9.56-4.99-2.16-10.73-3.23-17.22-3.23h-29.57v-15h29.57c8.59,0,16.44,1.49,23.53,4.45,7.09,2.97,13.21,7.25,18.34,12.84,5.14,5.59,9.09,12.34,11.85,20.25,2.76,7.91,4.15,16.8,4.15,26.67v8.16c0,9.88-1.38,18.77-4.15,26.67-2.76,7.91-6.75,14.64-11.94,20.2-5.2,5.56-11.45,9.83-18.75,12.8-7.3,2.97-15.52,4.45-24.65,4.45Z"/><path class="b" d="M168.35,89.38v136.5h-17.58V89.38h17.58ZM233.34,89.38v15h-68.6v-15h68.6ZM225.05,147.97v14.91h-60.3v-14.91h60.3ZM234.24,210.97v14.91h-69.5v-14.91h69.5Z"/><path class="b" d="M304.19,172.44h-35.07v-14.91h35.07c6.73,0,12.2-1.11,16.41-3.33,4.21-2.22,7.27-5.33,9.19-9.33,1.92-4,2.88-8.53,2.88-13.59,0-4.69-.96-9.09-2.88-13.22-1.92-4.12-4.99-7.44-9.19-9.94-4.21-2.5-9.68-3.75-16.41-3.75h-30.92v121.5h-17.58V89.38h48.5c9.92,0,18.3,1.78,25.15,5.34,6.85,3.56,12.06,8.5,15.64,14.81,3.57,6.31,5.36,13.5,5.36,21.56,0,8.75-1.79,16.22-5.36,22.41-3.58,6.19-8.79,10.89-15.64,14.11-6.85,3.22-15.23,4.83-25.15,4.83Z"/><path class="b" d="M473.48,153.31v8.62c0,10.25-1.23,19.44-3.7,27.56-2.46,8.13-6.03,15.03-10.68,20.72-4.66,5.69-10.22,10.03-16.68,13.03-6.46,3-13.69,4.5-21.68,4.5s-14.86-1.5-21.32-4.5c-6.46-3-12.06-7.34-16.81-13.03-4.75-5.69-8.41-12.59-11-20.72-2.58-8.12-3.88-17.31-3.88-27.56v-8.62c0-10.25,1.28-19.42,3.83-27.52,2.55-8.09,6.19-15,10.91-20.72,4.72-5.72,10.3-10.08,16.77-13.08,6.46-3,13.57-4.5,21.32-4.5s15.22,1.5,21.68,4.5c6.46,3,12.03,7.36,16.72,13.08,4.69,5.72,8.28,12.63,10.77,20.72,2.49,8.1,3.74,17.27,3.74,27.52ZM455.99,161.94v-8.81c0-8.06-.78-15.22-2.34-21.47-1.56-6.25-3.88-11.5-6.94-15.75-3.06-4.25-6.79-7.45-11.18-9.61-4.39-2.16-9.37-3.23-14.96-3.23s-10.28,1.08-14.6,3.23-8.04,5.36-11.13,9.61c-3.1,4.25-5.47,9.5-7.12,15.75-1.65,6.25-2.48,13.41-2.48,21.47v8.81c0,8.13.83,15.33,2.48,21.61,1.65,6.28,4.06,11.56,7.21,15.84s6.9,7.5,11.22,9.66,9.19,3.23,14.6,3.23,10.65-1.08,15.01-3.23c4.36-2.16,8.05-5.37,11.09-9.66,3.03-4.28,5.32-9.56,6.85-15.84s2.3-13.48,2.3-21.61Z"/><path class="b" d="M587.6,89.38v15h-101.5v-15h101.5ZM545.5,89.38v136.5h-17.4V89.38h17.4Z"/><path class="b" d="M593.31,218.52c0-2.26.37-4.35,1.13-6.29.75-1.93,1.79-3.62,3.13-5.06,1.34-1.44,2.88-2.56,4.64-3.37,1.75-.8,3.64-1.2,5.64-1.2s3.89.4,5.64,1.2c1.75.8,3.3,1.93,4.63,3.37s2.37,3.13,3.12,5.06c.75,1.93,1.13,4.03,1.13,6.29s-.38,4.35-1.13,6.29c-.75,1.93-1.79,3.63-3.12,5.08s-2.88,2.59-4.63,3.4c-1.76.81-3.64,1.21-5.64,1.21s-3.89-.41-5.64-1.21c-1.76-.81-3.3-1.94-4.64-3.4-1.34-1.46-2.38-3.15-3.13-5.08-.75-1.93-1.13-4.03-1.13-6.29ZM595.66,218.52c0,1.89.31,3.65.94,5.28.63,1.63,1.5,3.06,2.62,4.28,1.12,1.22,2.42,2.17,3.89,2.86s3.05,1.02,4.73,1.02,3.25-.34,4.72-1.02c1.47-.68,2.76-1.63,3.87-2.86,1.11-1.22,1.98-2.65,2.61-4.28.63-1.63.94-3.39.94-5.28s-.32-3.67-.94-5.28c-.63-1.62-1.5-3.04-2.61-4.25-1.11-1.21-2.41-2.16-3.87-2.83-1.47-.67-3.04-1.01-4.72-1.01s-3.26.34-4.73,1.01c-1.48.68-2.77,1.62-3.89,2.83-1.12,1.21-2,2.63-2.62,4.25-.63,1.62-.94,3.38-.94,5.28ZM608.38,220.09h-4.47l-.04-2.73h4.16c.57-.01,1.11-.12,1.61-.32.5-.2.9-.49,1.21-.86.31-.38.46-.84.46-1.4,0-.71-.12-1.27-.35-1.68-.23-.41-.62-.71-1.16-.9-.54-.18-1.27-.28-2.2-.28h-2.79v15.36h-2.89v-18.07h5.67c1.35,0,2.52.2,3.5.6.98.4,1.74,1,2.27,1.8.53.8.8,1.82.8,3.04,0,.77-.17,1.46-.51,2.07-.34.61-.84,1.14-1.5,1.58s-1.45.8-2.4,1.07c-.04,0-.09.05-.13.14-.05.09-.09.14-.13.14-.23.14-.38.24-.44.31-.06.06-.12.1-.18.12-.06.01-.23.02-.5.02ZM608.18,220.09l.41-1.92c2.12,0,3.56.47,4.33,1.4.77.93,1.16,2.11,1.16,3.53v1.15c0,.53.03,1.03.08,1.5.05.48.14.88.27,1.2v.34h-2.97c-.14-.37-.22-.89-.24-1.58-.02-.68-.03-1.18-.03-1.49v-1.11c0-1.04-.23-1.8-.69-2.29-.46-.49-1.23-.74-2.33-.74Z"/></svg>