<?xml version="1.0" encoding="UTF-8"?><svg id="a" xmlns="http://www.w3.org/2000/svg" xmlns:xlink="http://www.w3.org/1999/xlink" viewBox="0 0 506.1 506.62"><defs><style>.c{fill:url(#b);}</style><linearGradient id="b" x1="42.39" y1="40.79" x2="483.8" y2="482.19" gradientUnits="userSpaceOnUse"><stop offset=".02" stop-color="#b7882c"/><stop offset=".03" stop-color="#b88a2e"/><stop offset=".16" stop-color="#d2af50"/><stop offset=".28" stop-color="#e5ca69"/><stop offset=".39" stop-color="#f0db78"/><stop offset=".47" stop-color="#f5e17e"/><stop offset=".57" stop-color="#f1dc79"/><stop offset=".68" stop-color="#e7ce6c"/><stop offset=".8" stop-color="#d7b656"/><stop offset=".92" stop-color="#c09639"/><stop offset=".97" stop-color="#b7882c"/></linearGradient></defs><path class="c" d="M173.59,81.87l12.68-11.77c8.85-6.53,19.98-9.52,31.04-8.67,1.56,3.19-3.66,2.76-5.4,3.5-13.03,5.48-25.97,11.5-31.81,25.32.59.7,6.44-4.49,7.2-5.18,8.99-8.13,15.01-13.91,28.39-13.77,18.89.2,53.57,25.24,72.35,34.03,7.16,3.35,14.3,6.16,22.4,5.62,1.39-.09,2.98-.41,1.6-1.9-.62-.67-14.68-3.45-17.75-4.55-10.19-3.67-22.68-11.69-30.34-19.33-1.16-1.16-2.71-2.22-2.28-4.11,19.23.28,40.24.24,59.37,2.51,32.35,3.84,56.54,18.09,74.87,44.96,8.13,11.92,14.72,26.75,14.59,41.35-1.02,1.04-18.8-9.66-21.28-10.84-1.42-.68-2.87-.77-2.13.95.28.65,8.23,7.94,9.92,10.09,16.92,21.56,22.94,58.5,9.42,82.93-1.27,2.29-10.54,14.69-12.23,14.96-1.53.24-2.11-1.37-2.39-2.57l-9.53-40.48-2.96-.84c3.32,16.02,5.9,29.1,3.18,45.58-4.92,29.86-29.6,51.9-44.46,77.04-2.86,1.75-6.05-10-6.19-11.95-1.47-19.84,15.09-34.61,14-54.01-1.42-25.31-31.45-45.96-51.97-24.7-19.26,19.94-19.24,56.76-12.36,81.87,1.48,5.4,7.86,18.57,6.28,22.87-.5,1.35-3.83,5.58-4.99,7.21-4.74,6.7-13.02,15.45-19.24,20.88-2.43,2.12-14.84,12.1-16.8,12.99-1.04.47-1.91.52-3.01.32.27-3.85-.06-7.83,1.68-11.39-2.18-2.16-4.42,4.8-6.07,6.99-9.04,12.05-22.19,21.88-37.73,22.92.34-4.59,3.89-7.72,4.69-12.28.27-1.56.29-1.62-1.36-1.52l-32.35,20.01c-6.23-1.31-.09-7.09-.9-7.98-.52-.57-12,4.94-14.51,5.46-15.33,3.16-42.44-3.47-50.18-18.36-7.21-13.88,8.34-47.95,15.05-61.59,5.9-11.99,15.06-21.8,12.19-36.78l21.05-.77c1.63-1.24-7.42-8.19-8.58-8.9-5.15-3.15-16.89-4.79-16.23-12.01s5.54-15.1,13.6-12.09c10.38,3.88,23.88,17.02,34.13,22.57,5.75,3.45,9.3-3.26,13.77-6.24s9.6-5.27,14.54-7.02c10.78-3.82,30.55-5.12,38.7-9.6,14.66-8.07,13.54-42.28,9.08-56.08-5.15-15.94-21.14-30.9-2.49-46.02,18.52-15.01,48.65-9.56,70.42-6.78,1.14.15,5.48,1.04,5.58-.7-20.26-8.45-41.25-10.06-62.85-6.43-5.5.92-12.62,3.8-17.81,4.43-9.72,1.17-30.63-11.28-41.56-12.23l.66-2.98c7.92-6.08,18.7-10.07,26.4-16.01,1.2-.93,2.55-1.4,2.27-3.28-11.34,1.83-22.12,8.51-31.38,15.18-2.01,1.44-8.93,9.24-10.96,7.33l-4.62-32.3c-2.26-.83-1.55,2.09-1.69,3.4-.96,9.14-1.28,18.33-3.06,27.41-3.22.99-21.25,5.96-22.75,4.5-6.3-19.22-8.06-32.29-2.55-52.11,2.98-10.71,12.44-28.24,13.73-37.79.65-4.82-1.83-7.51-3.28-11.58,17.29,4.27,7.99,18.73,5.21,30.31ZM185.91,184.76l-33.52,1.93c-1.7,1.24,4.33,4.98,5.01,5.46,4.23,3.05,17.04,11.47,21.58,12.07,8.86,1.18,9.52-6.85,14.68-8.83,3.36-1.29,7.75-.83,11.27-.61-2.1-7.76-12.44-8.44-19.02-10.02ZM334.03,278.95c.42-7.09-8.61-17.65-15.62-19.2-5.02-1.11-14.54-.31-11.9,6.81,2.99,8.1,19.54,7.9,23.18,19.09.78,2.41.63,5.01,1.24,7.45.44,1.73-.58,2.59,2.14,2.31l.97-16.45ZM253.11-1.19C113.55-1.19.41,111.94.41,251.5s113.14,252.7,252.7,252.7,252.7-113.14,252.7-252.7S392.67-1.19,253.11-1.19ZM253.11,478.81c-125.54,0-227.31-101.77-227.31-227.31S127.57,24.2,253.11,24.2s227.31,101.77,227.31,227.31-101.77,227.31-227.31,227.31Z"/></svg>