<svg width="79" height="115" viewBox="0 0 79 115" fill="none" xmlns="http://www.w3.org/2000/svg">
<path d="M76.2437 49.1903C77.7358 43.5326 77.9012 37.6069 76.7271 31.8748C75.553 26.1427 73.071 20.7591 69.4746 16.1437C65.8783 11.5283 61.2648 7.80569 55.9936 5.26606C50.7223 2.72643 44.9359 1.43838 39.0851 1.50227C33.2344 1.56615 27.4774 2.98029 22.2629 5.63441C17.0483 8.28853 12.5172 12.1109 9.0225 16.8038C5.52781 21.4966 3.16394 26.933 2.11527 32.6894C1.0666 38.4458 1.36146 44.3666 2.97672 49.9903" stroke="#E9C664" stroke-width="3" stroke-linecap="round" stroke-linejoin="round"/>
<path d="M76.2487 48.2842C76.2487 48.2842 76.6867 95.6893 59.8637 104.251C53.6097 107.433 49.1927 109.871 46.1097 111.678C44.1054 112.849 41.8259 113.466 39.5047 113.466C37.1835 113.466 34.904 112.849 32.8997 111.678C29.8177 109.871 25.3998 107.434 19.1468 104.251C2.32377 95.6893 2.98173 49.0732 2.98173 49.0732C35.8317 35.7512 26.9717 3.58325 26.9717 3.58325" stroke="#E9C664" stroke-width="3" stroke-linecap="round" stroke-linejoin="round"/>
<path d="M76.2477 48.6614C76.2477 48.6614 41.0728 48.8074 27.1968 21.6394" stroke="#E9C664" stroke-width="3" stroke-linecap="round" stroke-linejoin="round"/>
</svg>
