<?xml version="1.0" encoding="UTF-8"?><svg id="a" xmlns="http://www.w3.org/2000/svg" xmlns:xlink="http://www.w3.org/1999/xlink" viewBox="0 0 749.2 763.28"><defs><style>.c{fill:url(#b);}</style><linearGradient id="b" x1="59.75" y1="62" x2="719.94" y2="722.18" gradientUnits="userSpaceOnUse"><stop offset=".02" stop-color="#b7882c"/><stop offset=".21" stop-color="#d4b353"/><stop offset=".38" stop-color="#ecd472"/><stop offset=".47" stop-color="#f5e17e"/><stop offset=".92" stop-color="#b7882c"/></linearGradient></defs><path class="c" d="M294.84,212.73l11.97-12.49c8.45-7.04,19.39-10.68,30.47-10.48,1.74,3.09-3.49,2.98-5.18,3.81-12.69,6.24-25.25,13.01-30.27,27.15.63.67,6.16-4.86,6.88-5.59,8.5-8.64,14.17-14.77,27.53-15.42,18.87-.91,54.97,22.04,74.23,29.71,7.34,2.92,14.64,5.31,22.7,4.29,1.38-.18,2.95-.58,1.48-1.99-.66-.63-14.85-2.57-17.99-3.5-10.39-3.06-23.33-10.33-31.43-17.51-1.23-1.09-2.84-2.05-2.52-3.97,19.21-.85,40.18-2.13,59.41-.99,32.52,1.92,57.51,14.73,77.38,40.47,8.81,11.42,16.27,25.84,17,40.42-.96,1.1-19.33-8.53-21.88-9.57-1.46-.59-2.91-.6-2.07,1.07.32.63,8.69,7.44,10.49,9.49,18.16,20.53,26.35,57.05,14.29,82.24-1.13,2.36-9.65,15.28-11.33,15.65-1.51.33-2.19-1.24-2.54-2.42l-11.9-39.85-3.01-.66c4.26,15.8,7.6,28.7,5.86,45.32-3.15,30.1-26.49,53.56-39.84,79.52-2.75,1.92-6.63-9.63-6.89-11.57-2.63-19.72,13.02-35.44,10.79-54.74-2.91-25.18-34.1-44.02-53.34-21.59-18.05,21.04-15.86,57.8-7.52,82.45,1.8,5.31,8.94,18.07,7.61,22.46-.42,1.38-3.5,5.79-4.56,7.49-4.34,6.97-12.09,16.19-17.97,21.98-2.3,2.26-14.1,12.95-16.01,13.95-1.01.53-1.88.63-2.99.5.04-3.86-.53-7.81,1.01-11.47-2.3-2.02-4.13,5.05-5.64,7.34-8.32,12.57-20.86,23.15-36.31,25.1.07-4.6,3.43-7.94,3.96-12.53.18-1.58.2-1.63-1.44-1.43l-31.12,21.88c-6.3-.94-.51-7.07-1.37-7.91-.55-.54-11.69,5.64-14.16,6.31-15.11,4.06-42.57-.96-51.18-15.38-8.02-13.43,5.5-48.36,11.4-62.36,5.19-12.32,13.75-22.65,10-37.44l20.97-2.01c1.55-1.33-7.89-7.74-9.09-8.38-5.33-2.84-17.14-3.79-16.91-11.04s4.64-15.41,12.86-12.87c10.6,3.26,24.84,15.59,35.4,20.52,5.95,3.1,9.09-3.8,13.38-7.04,4.2-3.17,9.27-5.83,14.1-7.87,10.54-4.45,30.2-6.91,38.07-11.87,14.16-8.92,11.03-43,5.76-56.52-6.08-15.61-22.93-29.6-5.2-45.79,17.61-16.08,48-12.41,69.89-10.92,1.15.08,5.53.72,5.53-1.03-20.72-7.25-41.78-7.61-63.12-2.72-5.43,1.25-12.38,4.54-17.51,5.47-9.64,1.74-31.24-9.45-42.21-9.76l.48-3.01c7.55-6.54,18.08-11.16,25.41-17.54,1.14-1,2.46-1.54,2.07-3.41-11.21,2.5-21.58,9.8-30.43,17-1.92,1.56-8.37,9.75-10.5,7.96l-6.51-31.97c-2.31-.7-1.43,2.18-1.49,3.49-.42,9.18-.2,18.38-1.44,27.54-3.16,1.18-20.87,7.2-22.44,5.83-7.42-18.82-9.95-31.76-5.61-51.87,2.34-10.86,10.75-28.92,11.48-38.54.37-4.85-2.27-7.39-3.95-11.37,17.51,3.24,9.08,18.23,6.99,29.95ZM110.06,349.58c9.34-104.01,87.11-195.59,186.32-225.67,86.57-26.25,181.42-7.13,250.14,51.36,51.45,43.79,86.24,106.61,92.86,174.32l14.03-.47c1.34-.82.55-1.65.53-2.52-.53-25.44-14.73-66.01-25.83-89.13-81.8-170.27-306.07-213.38-445.16-84.2-48.81,45.33-81.14,109.79-87.87,176.31h14.98ZM545.01,584.3c-1.14,0-13.19,10.72-15.57,12.4-93.61,66.39-214.79,64.88-308.85.42-2.45-1.68-15.12-12.82-16.15-12.82h-20.47c-.35,1.62.55,2.04,1.47,3.03,1.88,2.03,6.66,5.94,9.05,7.93,95.51,79.85,233.5,86.61,336.93,17.39,12.14-8.13,24.15-17.7,34.07-28.35h-20.47ZM741.78,438.49c3.52-4.3,9.75-10.94,6.52-16.55l-22.72-20.26c-3.17-.92-5.07.89-4.13,4.13,1.19,4.13,20.13,14.67,15.81,19.67-4.35-.07-19.4-18.6-21.96-15.97-3.67,3.78,14.27,15.47,16.5,17.94,2.7,2.99.52,4.97-2.53,3.53-3.23-1.53-12.5-13.41-15.98-14.99-2.02-.91-4.03-.41-4.03,2.01,0,2.04,14.29,12.32,16.56,15.43,3.05,4.17,1.72,5.24-2.56,2.56-3.3-2.07-14.93-14.16-16.47-14.5l-2.48,1.51c-.24.93.14,1.66.5,2.47,1.16,2.6,14.28,11.88,17.01,14.96l-1.05,3.03c-3.89,1.01-18.57-18.75-22.45-14.98-.36,2.04.22,2.65,1.48,4.01,3.62,3.93,12.07,8.87,15.04,12.93,4.25,5.81-.54,4.31-4.44,1.45-2.56-1.88-14.06-15.27-17.07-12.39-.95.92.77,3.1,1.45,4.03,1.95,2.67,16.29,13.38,16.52,14.45.26,1.24-.79,1.76-1.51,2.48-.61.16-1.22,0-1.81-.15-2.05-.54-12.11-12.13-15.1-13.88-4.37-2.56-6.48-.08-3.53,3.53,3.1,3.79,11.59,8.48,14.51,12.46.67.92,2.4,3.06,1.45,4.03-3.01,3.09-19.33-18.46-22.96-14.97-.95.91.77,3.1,1.45,4.04,3.36,4.6,11.18,9.36,15.5,13.46,2.24,2.16.68,5.7-2.49,3.49-2.56-1.79-17-17.56-19.46-14.99-.62.65.26,3.48.93,4.56,1.32,2.14,11.82,9.72,14.57,12.39,3.59,3.47,2.29,6.4-1.04,4.04-5.19-3.69-10.23-9.63-15.42-13.54-1.12-.85-1.8-1.85-3.52-1.45-1.19,1.1-1.94,1.26-1.04,3.01,1.83,3.54,16.84,13.55,17.49,16.48l-2.48,2.48c-1.83-.41-13.27-13.46-15.94-15.03-4.37-2.56-6.48-.08-3.53,3.53,2.22,2.72,9.05,7.25,11.98,9.99,1.13,1.06,5.23,4.63,4.97,5.99-.34,1.78-2.29,1.43-3.72.75-4.28-2.02-13.21-13.7-17.18-14.81-5.74-1.6-1.23,5.19,1.4,6.61l14.5,13.44c-1.27,1.67-2.02,1.93-3.98,1.02-3.27-1.52-10.9-10.89-14.5-13.48-2.74-1.97-5.44-3.52-5.33,1.32,1.78,3.1,17.41,14.32,17.82,16.17.27,1.22-1.24,2.75-2.46,2.47-3.1-.72-17.15-18.18-20.5-14.96-3.16,3.04,18.41,17.27,17.97,19.46-.31,1.55-2.44,1.73-3.99,1.02-3.28-1.53-10.44-10.68-14.03-12.94-1.97-1.24-3.55-1.86-5.94-1.54-.34,1.91.3,2.71,1.43,4.06,3.17,3.81,11.48,9.02,15.06,12.9,3.84,4.16.81,5.21-3.46,2.46-2.73-1.76-15.17-16.17-18.02-13.43-3.24,3.11,18.61,17.34,17.97,20.46-.22,1.09-1.65,1.73-3.01,1.03-3.05-1.57-10.1-9.82-13.5-12.47-2.43-1.89-9.57-5.11-6.98-.01,1.29,2.55,14.31,11.81,17.03,14.94,1.3,1.58-.1,4.44-2.01,4.02l-15.94-15.03c-4.33-2.23-6.19-1.14-3.09,3.09,3.54,4.85,12.05,10.09,16.57,14.5l-2.53,3.43c-2.67-1.44-18.12-18.51-20.48-15.97-3.79,4.07,16.25,15.27,16.99,19.46.27,1.54-.02,1.73-1.52,1.53-4.68-.64-18.41-18.16-21.47-14.99-.14.15-.42,3.56.66,4.07,3.61,3.75,14.79,10.92,16.83,14.89.7,1.36.06,2.78-1.03,3.01-1.42.29-14.67-12.62-17.44-14.5-.89-.6-3.03-2.5-4.01-1.47-3.84,4,18.59,17.45,17.97,20.46-.23,1.13-1.59,1.64-2.99,1.03-4.34-1.88-15.06-14.9-18.59-15.41-1.31-.19-2.65,1.16-2.38,2.4.43,1.93,13.51,12,15.98,15,.92,1.12,2.43,1.61,1.99,3.49-1.37,0-2.49,1.26-3.95.55-4.37-2.14-12.85-13.37-16.73-14.41-3.13-.84-6,3.7-2.85,5.95,6.58,3.32,17.4,17.79,23.52,19.5,5.41,1.51,12.9-7.76,16.51-11.56,10.54-11.12,20.77-23.88,31.03-35.39,22.78-25.57,48.37-52.19,69.84-78.47ZM98.26,462.76c-9.63-20.53-24.45-48.05-37.31-66.56-1.39-2-7.94-11.07-9.33-11.65-1.27-.54-1.74.1-1.43,1.42.97,4.09,3.63,10.57,5.17,14.81,8.53,23.46,18.96,46.28,27.73,69.64L.21,436.48c-1.22,1.15,3.22,4.62,4.09,5.39,13.68,12.19,61.09,40.75,78.05,47.8,1.83.76,5.18.53,5.61.88,1.46,1.17,4.54,33.71,3.89,37.09s-3.5,7.36-3.7,11.35c-.5,9.77,6.48,19.32,15.67,22.11,1.6.49,4.09-.19,5.08.4,2.25,1.33,3.56,12.36,3.09,15.26-1.47,9.04-12.37,2.2-10.92,10.54,19.57.87,12.78-16.68,15.01-27.26.1-.49,5.21-5.32,6.37-7.8,4.35-9.36.32-22.09-8.24-27.51-2.94-1.86-11.97-4.72-12.94-8.03.98-7.97-8.6-30.22,5.16-29.2,2.87.21,18.03,3.74,20.02,5.02,3.87,2.5,6.1,12.45,10.09,16.88,5.08,5.62,14.24,8.3,21.75,6.76s8-8.9,19.18-4.75c2.15.8,7.98,6.33,8.57.48.51-5.12-10.69-3.08-14.12-7.9-2.55-3.58-.84-11.24-7.42-17.55-12.16-11.67-22.71-1.73-34.96-3-8.01-.83-18.01-5.03-26.31-6.15-.43-4.6-2.92-10.16-4.96-14.51ZM22.15,448.95c-1.31-.76-2.51.17-1.96-2.48l62.91,28.95c-21.08-5.42-42.15-15.54-60.95-26.47ZM93.59,485.44c-4.03,0-4.85-6.91-.8-7.91,5.04-1.25,5.86,7.9.8,7.91ZM162.86,504.77c-5.44,10.62-27.02,4.2-24.78-9.8.38-2.36,3.39-6.68,5.64-7.34,10.35-3.02,24.54,6.59,19.14,17.15ZM106.66,555.31c-13.28-1.59-16.03-24.25-4.87-26.73,18.57-4.13,21.99,28.79,4.87,26.73ZM711.89,214.83c-1.2,1.48-4.39,2.94-6.21,3.78-13.28,6.14-30.23,12.72-44.05,17.88-4.82,1.8-11.56,5.16-16.52,4-1.33-.31-1.93-2.3-3.72-1.77l8.99,23.97c3.11.68,1.48-2.37,2.91-4.56,1.78-2.71,23.35-11.47,24.96-10.34.71,1.89.85,4.01,1.61,5.89,1.09,2.71,5.82,9.64,3.45,11.49-1.54,1.2-21.27,8.37-23.34,8.43-1.34.04-3.02-1.26-4.6-.91l8,21.97c3.09.69,1.48-2.36,2.91-4.56.66-1.01,2.27-2.03,3.36-2.63,9.84-5.43,30.61-12.65,41.95-16.97,4.56-1.74,18.28-7.52,21.94-6.59.89.23,2.39,2.22,2.72,1.79l-7.99-22.97-6.76,6.72-29.64,12.3c-1.01-3.65-8.49-16.13-5.55-18.53,8.03-1.41,26.35-12.78,33.43-11.47,1.63.3,2.19,1.51,3.52,1.99,1.48-1.97-9.12-19.79-7.99-23.98-3.13-.56-1.39,2.59-3.4,5.09ZM508.83,114.08c29.06,20.2,61.1-17.05,58.64-45.67-2.76-32.14-39.7-37.91-58.49-14.07-12.75,16.18-20.17,45.82-.15,59.74ZM549.96,75.85c-3.66,11.42-18.61,41.3-33.7,36.79-2.92-.87-5.37-6.39-5.72-9.25-1.77-14.57,14.86-54.47,30.71-57.23,17.19-2.99,11.7,20.34,8.71,29.69ZM64.65,161.83c-10.9,33.67,43.04,70.17,68.43,44.47,27.23-27.56-12.65-69.52-46.25-64.23-9.27,1.46-19.33,10.94-22.19,19.76ZM126.07,178.25c14.28,16.44,9.12,29.31-13.45,22.44-11.69-3.56-38.15-21.48-41.07-33.83-1.27-5.37-.91-11.24,5.3-12.81,14.87-3.78,39.8,13.35,49.22,24.2ZM409.92,762.83c38.1-5.66,34.8-89.88-15.48-81.4-36.33,6.13-33.21,88.63,15.48,81.4ZM418.72,736.66c-.66,9.03-4.31,25.79-16.77,20.67-11.5-4.72-15.8-36.76-15.28-47.73.49-10.19,5.79-33.19,19.68-21.08,9.61,8.38,13.26,35.93,12.37,48.14ZM234.43,114.88c33.15-20.68-4.9-85.66-38.19-70.16-3.41,1.59-8.8,6.11-12.73,8.25-2.79,1.52-8.63,2.84-10.91,4.87-2.57,2.29,1.47,2.04,2.94,3.03,4.73,3.19,20.89,35.35,24.92,42.99,3.79,7.18,10.51,15.99,7.48,23.98l26.49-12.95ZM204.64,49.74c12.3,5.98,28.51,36.48,30.15,49.75,1.49,12.05-4.38,19.1-13.29,8.29-6.95-8.43-16.98-28.26-22.29-38.63-2.88-5.62-12.37-19.1-1.53-21.06,2.26-.41,4.94.67,6.95,1.65ZM538.02,635.24c-2.37,0-11.76,6.09-13.95,8.02-15.26,13.42-15.8,34.66-5.35,51.23,18.26,28.95,53.05,23.93,72.79.19-8.21-10.38-18.14-20.82-20.04-34.47-.89-.82-12.37,7.09-14.32,8.15-2.4,1.3-5.85,2.01-7.89,3.1-4.11,2.18-.24,4.1,1.02,6.47.79,1.49,1.24,6.57,3.21,3.56,1.27-1.94,2.03-5.33,5.02-6.76,4.86-2.32,3.5.64,4.75,3.17,2.59,5.25,12.36,19.21,12,23.58-.43,5.2-12.06,5.14-16.03,4.45-18.51-3.22-38.55-42.63-29.9-59.39,5.8-11.24,17.58-6.55,22.57,2.8.43.8,1.64,8.31,3.6,5.89.63-.78.21-16.86,2-19.97h-19.48ZM42.72,212.77c-7.93,6.36-14.02,7.07-17.59,18.4-14.4,45.68,49.72,72.33,74.79,33.84,5.92-9.09,6.31-19.13,9.15-29.3-8.76.05-16.94-3.73-25.12-6.34l-13.82-7.65c-2.43,8.78-6.28,17.31-10.99,24.96,4.36-.34,7.04,3.34,10.98,4-1.58-4.74-1.45-8.81,1.5-12.97,5.93,7.29,37.91,8.59,25.02,22.01-13.53,14.1-41.47,4.07-54.81-6.21-7.38-5.69-17.36-17.81-10.07-26.71,7.9-9.66,21.51.75,22.38-.09-1.18-4.08-4.58-7.17-6.48-10.98-.82-1.64-1.29-5.78-1.51-6-1.73-1.64-2.48,2.28-3.42,3.03ZM478.11,665.24c-4.33.99.67,2.35,1.94,4,1.76,2.28,3.02,5.29,4,8,4.79,13.2,7.82,28.5,12.52,41.9l-3.39-2.09-32.98-43.92c-4.48-3-15.12,3.92-20.54,4.08l6.72,6.74c3.34,18.45,15.1,40.04,18,57.9.6,3.72.26,6.68-.75,10.25,4.42-1.65,9.01-2.65,13.52-3.96,4.59-1.33-1.11-2.21-2.62-3.44-5.74-4.67-11.79-38.13-15.9-46.53,1.96-.34,2.84,1.31,3.96,2.52,9.13,9.98,18,27.77,27.65,36.28,9.42,8.31,14.13,1.55,24.32.14.33-2.9-2.3-1.69-4.46-4.03-2.95-3.19-17.49-49.42-19.22-56.69-.67-2.84-1.67-6.88-1.38-9.72.26-2.6,2-3.18,2.07-5.46-4.6,1.22-8.78,2.95-13.47,4.02ZM361.75.99c-.73,2.66,1.63,1.81,2.86,3.58,3.49,5.03,1.71,11.14,2.14,16.88.94,12.47,2.01,25,2.98,37.46-2.6.48-1.76-.49-2.45-1.98-7.7-16.62-13.95-34.7-21.48-51.47-4.22-6.93-15.16-.76-21.99-2.47.19,3.41,3.82,2.41,4.77,6.7.72,3.26.87,10.69,1.2,14.78,1.2,14.56,3,33.77,3.01,47.94,0,4.42-2.91,5.81-4,9.48l15.97-1-4.94-7.54c-.83-15.45-1.39-31.11-3.04-46.39,1.95-.39,2.4.9,3.2,2.29,6.66,11.57,11.71,35.83,20.24,45.68,6.89,7.96,13.56,3.69,22.5,3.96.46-2.9-2.47-2.08-3.88-4.6-1.96-3.49-3.72-37.01-4.09-43.85-.31-5.71-1.71-19.23-.95-23.91.51-3.13,2.45-4.17,3.93-6.54l-15.97.99ZM246.9,21.98c.16,1.64,2.45,1.04,4.08,2.39,1.37,1.13,2.77,3.88,3.4,5.59,5.17,13.84,8.99,32.53,12.78,47.15,1.31,5.05,5.12,10.68,3.5,16.07-.55,1.85-3.23,2.37-2.79,4.69l48.89-14.58c-3.56-9.25-10.54-17.81-7.95-28.36-3.45-1.17-11.85,3.61-12.77,6.69-2.42,8.12,9.58,22.04-3.18,23.86-2.83.4-4.86-1.5-6.46-3.65-1.88-2.52-9.62-27.84-8.55-28.9,2.48.33,5.03-1.34,7.42-1.01.84.11,6.62,4.13,5.55.53s-4.53-7.74-3.99-12.5c-2.26,1.73-2.69,4.23-5.72,5.74-1.63.81-4.5,2.09-5.76.26-.84-1.21-3.97-12.72-4.23-14.75-.48-3.69-1.5-8.87,2.36-11.11,7.71-4.47,7.18,5.01,9.5,9.23,3.4,6.2,9.87,5.29,15.82,3.59,1.03-1.51-4.44-9.43-4.9-12.51-.58-3.89.28-8.44-.07-12.42l-46.93,14ZM228.49,655.14c-2.85-5.6-3.07-11.87-8.81-16.16-18.69-13.97-42.34-2.98-38.46,21.49,1.63,10.29,21.26,41.23-.76,42.71-17.9,1.2-17.85-23.7-1.48-25-2.61-9.16-14.75-7.39-18.53-.05-12.67,24.61,33.84,47.4,45.36,24.38,9.02-18.01-13.96-39.34-5.52-55.46,1.41-2.7,4.02-5.46,7.11-5.88,12.22-1.66,12.39,9.15,7.57,17.56-.88,1.54-6.92,7.6-6.01,8.46,7.35-3.02,14.75-6.92,22.96-6.99.34-2.52-2.48-3.21-3.42-5.06ZM281.15,668.4c-2.68-1.31-16.13-6.26-19.01-6.96-1.08-.26-2.17-.3-3.27-.22,1.76,3.26,1.12,6.73-.6,9.88l-35.63,53.77c-.2,1.32-10.31,2.21-7.72,4.26l16.98,4.99c-3.91-2.93-1.2-11.51,2.01-13.5,1.83-1.14,20.77,5.39,21.5,6.47,2.53,3.76-1.64,11.95-5.53,14.02l23.97,7.99c-4.19-3.86-3.27-10.15-3.04-15.51.5-11.47,2.61-26.24,4.05-37.9.67-5.45,1.77-20.78,4.91-24.07.71-.74,2.01-1.39,3.07-1.43.39-.57-1.02-1.46-1.69-1.79ZM241.3,714.25c-1.14-.42-1.65.58-1.39-1.56l20.95-31.5-4,37.96c-4.97-1.76-10.69-3.11-15.57-4.9ZM604.95,77.88c-.85-.58-.99-1.39-2.51-.98.73,4.18-.56,5.78-2.6,8.89-9.52,14.53-39.09,35.96-36.31,54.46,1.54,10.28,13.77,20.66,24.44,19.58,17.65-1.8,36.69-35.06,49.87-46.04,2.06-1.96,4.2-.19,6.53.06.38-1.67-.53-2.02-1.51-2.97-2.04-1.98-6.3-5.84-8.46-7.52-1-.77-1.27-1.94-3-1.49,1.16,3.39,1,5.46-1,8.49-4.92,7.47-18.83,22.46-25.46,29.47-5.74,6.07-16.88,18.87-25.51,11.5-6.46-5.52-3.09-11.31.62-17.42,3.16-5.2,33.37-40.24,36.89-41.02,1.38-.31,3.03.08,4.47-.03-5.28-4.29-11.05-11.25-16.47-14.99ZM436.66,3.99c1.43,5.01,1.33,12.27-.28,17.2s-8.92,11.51,5.75,8.74c6.91-1.31,4.55-15.65,8.11-16.87,5.34-1.83,4.63,4.96,4.43,8.45-.57,10.07-9.63,45.48-13.29,55.62-.57,1.57-1.53,4.22-2.67,5.33-1.86,1.82-4.63.44-4.04,3.43,3.6-1.51,22.89,6,23.96,4.99.27-1.98-1.59-2.57-1.96-4.51-1.17-6.01,9.64-47.19,12.24-55.63,1.61-5.23,2.73-13.42,9.7-11.78.12,10.73-8.17,22.81,8.99,22.98.27-3.65-.5-7.69.23-11.27.52-2.57,7.31-12.24,6.76-12.71-19.72-2.52-39.06-7.97-57.92-13.98ZM685.31,161.33c-29.29-36.08-93.08,6.31-65.71,49.73,4.3,6.82,12.93,15.77,21.83,13.21,5.65-1.63,6.6-6.12,5.95-11.53-3.47-.59-4.55,3.05-7.69,3.78-11.27,2.61-18.39-6.63-17.19-17.18,1.97-17.39,28.38-35.35,44.62-37.29,18.4-2.2,27.14,13.48,10.79,23.77-1.99,1.25-5.91.57-5.54,3.94,6.73-2.3,13.2-.2,19.97,0-.78-11.58.57-19.09-7.02-28.44ZM307.81,677.2c.4,1.75,2.84,2.52,3.47,4,1.29,3.02-1.05,17.81-1.6,22.33-1.84,14.96-5.07,29.77-6.08,44.86-.49,3.5-4.12,4.11-5.78,6.7l50.93,6c-.73-5.72-1.59-11.65-.98-17.46.68-6.49,7.45-13.87-2.46-13.53-12.97.44-9.32,11.69-11.82,20.28-.72,2.49-1.06,3.42-4,3.38-10.78-.15-9.26-8.79-8.69-17.12,1.09-16.11,5.66-33.59,7.05-49.88.33-3.05,2.57-3.3,4.46-4.48.84-.53,2.03.55,1.45-2.08l-25.96-2.99ZM111.14,106.44l-1.07,2.42c5.13-.77,7.3,1.76,10.49,4.99,13.18,13.31,24.28,30.8,37.9,44,2.48,2.92.78,9.96,5.53,7.45l34.96-29.98-14.96-14c-2.44-1.11-3.67-8.15-4.03-8.47-2.63-2.29-9.96,6.74-8.95,12.43,1.19,6.7,14.46,12.56,9.53,18.62-6.71,8.25-12.38.78-17.59-4.55-11.38-11.66-21.11-26.7-32.88-38.23-2.08-3.36-2.45-5.47-1.04-9.23l-17.9,14.55ZM313.2,314.72l-33.34,3.9c-1.63,1.34,4.62,4.71,5.32,5.16,4.4,2.8,17.69,10.44,22.26,10.78,8.92.66,9.1-7.4,14.13-9.68,3.27-1.49,7.69-1.28,11.21-1.27-2.56-7.63-12.92-7.69-19.58-8.88ZM466.61,400.02c0-7.1-9.63-17.11-16.72-18.25-5.08-.81-14.53.55-11.48,7.5,3.46,7.91,19.97,6.74,24.26,17.69.92,2.36.92,4.97,1.68,7.36.54,1.7-.43,2.62,2.27,2.18v-16.48Z"/></svg>