<svg width="114" height="97" viewBox="0 0 114 97" fill="none" xmlns="http://www.w3.org/2000/svg">
<path d="M100.336 95.501C100.336 95.501 97.4179 81.4629 106.536 60.3139C106.536 60.3139 109.454 48.646 101.429 43.359C101.429 43.359 104.082 40.624 111.51 47.096C111.51 47.096 102.523 28.044 92.8568 24.215C92.8568 24.215 99.4228 22.3919 103.071 17.2869C103.071 17.2869 91.0328 18.0159 84.8318 14.9169C84.8318 14.9169 92.8569 12.1819 96.3229 4.52495C96.3229 4.52495 91.7829 6.50296 82.8879 5.99696C79.4315 5.7901 76.0098 5.19263 72.6879 4.21596C64.3789 1.79996 38.4109 -3.76605 20.9949 14.552C19.8932 12.9813 18.3578 11.7656 16.5765 11.0533C14.7951 10.341 12.8448 10.1629 10.9639 10.5409L11.0558 10.5769C11.911 10.929 12.6623 11.4934 13.2387 12.2166C13.8151 12.9399 14.1975 13.7982 14.3499 14.7104C14.5022 15.6226 14.4195 16.5586 14.1094 17.4299C13.7993 18.3012 13.2723 19.0791 12.5779 19.69C9.78801 22.2114 7.45796 25.1989 5.69194 28.5189C1.37628 36.6015 0.346718 46.0379 2.81791 54.8609C5.89591 66.0199 11.5259 88.594 8.79887 95.5C8.79887 95.5 19.1709 72.346 20.0829 50.833C20.0829 50.833 55.2829 62.866 93.7669 50.833C93.7699 50.834 92.1279 82.19 100.336 95.501Z" stroke="#E9C664" stroke-width="3" stroke-linecap="round" stroke-linejoin="round"/>
</svg>
