<?xml version="1.0" encoding="UTF-8"?><svg id="a" xmlns="http://www.w3.org/2000/svg" viewBox="0 0 386.66 384.64"><defs><style>.b{fill:#e9c664;}</style></defs><path class="b" d="M288.66,373.97H105.27l-18.63-3.76c-32.1-8.99-58.2-34.79-67.56-66.78l-4.08-19.74V100.3C19.38,54.82,54.64,17.14,100.03,10.83c60.76,1.04,124.94-4.12,185.46-.84,49.24,2.67,90.31,42.69,93.43,92.09,3.67,58.11-2.76,119.94.04,178.44-2.19,47.97-42.23,89.81-90.3,93.44ZM107.26,31.57c-38.23,3.23-68.6,34.27-70.97,72.61-3.55,57.43,2.73,118.5.04,176.31,2.81,38.46,33.66,69.34,72.15,72.15h176.97c38.46-2.81,69.33-33.66,72.15-72.15V103.51c-3.17-39.3-34.03-69.9-73.53-72.19-57.69-3.35-118.77,2.41-176.81.25Z"/><path class="b" d="M189.71,92.69c77.97-5.69,132.16,77.58,94.8,146.7-37.37,69.14-136.98,69.25-174.83.45-34.94-63.51,8.36-141.91,80.03-147.14ZM190.42,114.02c-53.85,4.41-87.09,61.65-64.44,110.93,25.86,56.24,104.6,60.84,137.38,8.22,33.98-54.57-9.35-124.36-72.94-119.14Z"/><path class="b" d="M296.31,57.14c38.01-3.7,43.79,55.22,5.49,58.79s-44.49-55-5.49-58.79ZM293.16,80.64c-6.73,6.42,1.48,18.09,10.07,12.56,9.93-6.4-1.91-20.34-10.07-12.56Z"/></svg>