<svg width="23" height="28" viewBox="0 0 23 28" fill="none" xmlns="http://www.w3.org/2000/svg">
<path d="M22.0002 11.6361C22.0002 19.9091 11.5002 27.0001 11.5002 27.0001C11.5002 27.0001 1.00021 19.9091 1.00021 11.6361C0.982387 8.83332 2.07857 6.13826 4.04766 4.14367C6.01674 2.14908 8.69747 1.0183 11.5002 1.00006C14.303 1.0183 16.9837 2.14908 18.9528 4.14367C20.9219 6.13826 22.018 8.83332 22.0002 11.6361V11.6361Z" stroke="#E9C664" stroke-width="2" stroke-linecap="round" stroke-linejoin="round"/>
<path d="M11.6401 16.0041C13.8493 16.0041 15.6401 14.2132 15.6401 12.0041C15.6401 9.79495 13.8493 8.00409 11.6401 8.00409C9.431 8.00409 7.64014 9.79495 7.64014 12.0041C7.64014 14.2132 9.431 16.0041 11.6401 16.0041Z" stroke="#E9C664" stroke-width="2" stroke-linecap="round" stroke-linejoin="round"/>
</svg>
