<?xml version="1.0" encoding="UTF-8"?><svg id="a" xmlns="http://www.w3.org/2000/svg" xmlns:xlink="http://www.w3.org/1999/xlink" viewBox="0 0 652 322"><defs><style>.c{fill:none;}.d{fill:#fcfcfd;}.e{clip-path:url(#b);}</style><clipPath id="b"><rect class="c" x="33.83" y="49" width="584.35" height="224"/></clipPath></defs><g class="e"><path class="d" d="M337.78,172.06c0,33.06-12.9,47.82-41.75,47.82-11.62,0-20.6-2.42-27.23-7.58,6.69,7.38,16.82,10.93,30.74,10.93,24.06,0,40.94-14.55,40.94-47.61l.88-120.92-3.58-3.22v120.58h0Z"/><path class="d" d="M294.68,191.31c-1.49-3.15-2.09-8.59-2.09-17.24V53.03l-3.58-3.22v120.92c.07,13.68,1.49,19.31,5.68,20.59h0ZM219.96,190.64h2.83v-46.61h21.55v-23.81l-2.77-2.88v23.81h-21.62v49.49h0ZM250.43,76.56h-30.34v38.16h2.77v-35.28h30.34l.13-25.76-2.9-2.42v25.28ZM250.1,218.07h-62.03l2.03,2.95h62.77v-24.54l-2.78-2.42v24.01h0ZM456.9,141.15v48.15h2.77v-45.27h21.55v-23.81l-2.78-2.88v23.81s-21.55,0-21.55,0ZM456.97,112.91l2.78.07v-33.53h30.33l.14-25.76-2.91-2.42v25.28h-30.34s0,36.35,0,36.35ZM530.41,54.97l-2.91-2.42v136.14l3.04.27s-.14-133.99-.14-133.99ZM487.65,218.47h-61.96l2.03,2.88h62.7v-24.54l-2.77-2.42v24.08h0ZM556.15,218.47h-59.86l2.03,2.88h60.6v-24.54l-2.77-2.42s0,24.08,0,24.08ZM129.29,160.26v58.14h-30.74l2.57,2.89h31.82v-58.08h2.03l-.67-2.95h-5ZM133.82,76.29h-4.19v59.62h3.65v-56.73h4.19c1.1-.02,2.19.14,3.24.47-1.75-2.55-4.12-3.36-6.89-3.36ZM168.07,149.06c9.19-8.11,13.11-22.33,13.11-42.65,0-22.67-5.95-39.03-17.36-48.08,9.8,9.59,15.13,25.15,15.13,45.67s-5.06,36.02-14.25,44.13l-.61.54,17.09,69.95h-30.68l.68,2.88h33.71l-17.43-71.89s.61-.54.61-.54ZM418.19,74.01l-42.09,115.69h4.12l41.08-113v-23.88l-3.11-3.15v24.34ZM417.99,218.54h-73.31l1.82,2.68h74.59v-24.61l-3.11-2.14v24.08ZM382.86,76.29h-35.14l2.37,2.68h31.82l.95-2.68h0Z"/><path class="d" d="M247.26,192.25h-30.81v-55.53h21.55v-20.92h-21.55v-43.52h30.34v-23.27h-58.99v165.38h59.46v-22.13ZM334.01,171.19V49h-26.75v121.72c0,13.28-.81,23.41-10.81,23.41s-10.81-10.8-10.81-23.88V49h-28.44v122.93c0,31.32,11.01,44.13,38.03,44.13,27.16-.07,38.78-13.48,38.78-44.86ZM414.33,192.99h-43.31l43.31-119.24v-24.75h-68.11l.4,23.34,40.61-.14-43.24,118.57v23.6h70.34v-21.39h0ZM484,192.25h-30.81v-55.53h21.55v-20.92h-21.55v-43.52h30.34v-23.27h-58.99v165.38h59.46v-22.13ZM552.78,192.25h-29.12V49h-28.72v165.38h57.84s0-22.13,0-22.13ZM160.37,146.38l1.96-1.74c8.51-7.58,13.24-22.47,13.24-41.92,0-34.14-15.27-53.72-41.82-53.72h-35.2v165.38h27.5v-58.08h10.54l13.04,58.08h27.37l-16.62-68h0ZM133.48,137.93h-7.5v-65.66h7.23c11.55,0,13.85,11.87,13.85,30.92.07,24.68-3.92,34.74-13.58,34.74ZM45.11,272.8h-11.28l.61-2.01v-13.48l-.61-1.94h11.28l2.77,2.75v3.35l-1.89,1.88,2.16,2.14v4.36s-3.04,2.95-3.04,2.95ZM42.81,260.18l-.4-.73-.75-.41h-2.09l-.27.27v2.21l.27.27h2.16l.75-.4.4-.74v-.47h-.07,0ZM42.95,266.83l-.34-.74-1.01-.47h-2.03l-.27.27v2.75l.4.4h1.89l1.01-.47.4-.74v-1.01s-.07,0-.07,0ZM66.33,257.37l-4.46,8.72v4.09l.88,2.61h-6.55l.88-2.61v-3.89l-4.6-8.98-1.41-2.01h6.21l.27,1.74,1.89,3.75.27.74.27-.74,1.89-3.75.27-1.74h5.6l-1.42,2.08ZM89.84,259.32h-3.58l-.75.4-.4.74v.47l.54.47,3.92.88,2.43,2.34v4.83l-3.31,3.22h-7.5l-1.75-5.1,2.63.88h3.65l.74-.4.4-.74v-1l-.6-.6-3.92-.74-2.3-2.21v-4.09l3.31-3.22h7.09l1.62,4.76-2.23-.87h0ZM108.49,272.8h-7.09l-3.58-3.49v-10.46l3.58-3.49h6.82l1.76,5.1-3.04-1.01h-1.76l-1.56.74-.6,1.27v5.23l.61,1.27,1.55.74h1.96l3.04-1.01s-1.69,5.1-1.69,5.1ZM123.55,272.79l.61-2.01v-4.96l-.27-.27h-3.04l-.27.27v4.97l.61,2.01h-6.08l.61-2.01v-13.48l-.61-2.01h6.09l-.61,2.01v3.75l.27.27h3.04l.27-.27v-3.75l-.6-2.01h6.08l-.61,2.01v13.48l.61,2.01h-6.08ZM147.06,272.8h-7.84l-3.31-3.22v-10.93l3.31-3.22h7.84l3.31,3.21v10.93l-3.31,3.22ZM145.31,260.72l-.55-1-1.01-.47h-1.28l-1.02.47-.47,1.01v6.51l.48,1,1.01.47h1.28l1.01-.47.54-1v-6.51h0ZM166.11,272.79l-1.89-5.63-.47-.27h-1.42l-.27.27v3.62l.61,2.01h-6.08l.61-2.01v-13.48l-.61-2.01h11.01l3.31,3.21v4.83l-2.29,2.22,1.75,4.76,1.42,2.35h-5.68s0,.13,0,.13ZM165.98,260.86l-.48-1.01-1.01-.47h-2.16l-.27.27v3.08l.27.27h2.16l1.01-.47.48-1s0-.67,0-.67ZM188.21,272.79h-11.02l.61-2.01v-13.48l-.61-2.01h10.68l1.62,4.76-2.23-.74h-4.39l-.2.27v1.74l.27.27h1.62l1.89-.6v5.23l-1.89-.6h-1.62l-.27.27v2.35l.4.4h4.26l2.63-.87-1.75,5.03h0ZM207.6,272.79l.6-2.01v-7.71l.14-1-.4,1-4.05,9.72h-.14l-4.06-9.72-.4-1,.14,1v7.71l.61,2.01h-5.47l.61-2.01v-13.48l-.61-2.01h6.35l2.91,7.04.13.6.14-.6,2.91-7.04h6.49l-.61,2.01v13.48l.61,2.01s-5.88,0-5.88,0ZM237.73,272.79l.61-2.01v-4.96l-.27-.27h-3.04l-.27.27v4.97l.6,2.01h-6.07l.61-2.01v-13.48l-.61-2.01h6.08l-.6,2.01v3.75l.27.27h3.04l.27-.27v-3.75l-.61-2.01h6.08l-.61,2.01v13.48l.61,2.01h-6.09ZM258.81,272.8l.27-2.01-.41-1.48-.27-.27h-4.19l-.27.27-.4,1.48.27,2.01h-5.81l1.02-2.01,3.58-13.81-.4-1.61h8.64l-.4,1.61,3.58,13.82,1.01,2.01h-6.22ZM256.45,259.72l-.14-.87-.14.88-1.28,5.36.27.27h2.3l.27-.27s-1.28-5.37-1.28-5.37ZM277.79,272.8l.27-2.01-.4-1.48-.27-.27h-4.19l-.27.27-.4,1.48.27,2.01h-5.81l1.01-2.01,3.58-13.81-.4-1.61h8.65l-.4,1.61,3.58,13.82,1.01,2.01h-6.22ZM275.5,259.72l-.14-.87-.13.88-1.29,5.36.27.27h2.3l.27-.27-1.29-5.37h0ZM297.73,272.79l-1.89-5.63-.47-.27h-1.42l-.27.27v3.62l.61,2.01h-6.08l.61-2.01v-13.48l-.61-2.01h11.02l3.31,3.21v4.83l-2.3,2.22,1.75,4.76,1.42,2.35h-5.67v.13h0ZM297.66,260.86l-.47-1.01-1.02-.47h-2.23l-.27.27v3.08l.27.27h2.16l1.01-.47.47-1v-.67s.07,0,.07,0ZM318.4,259.32h-3.58l-.75.4-.4.74v.47l.54.47,3.92.88,2.43,2.34v4.83l-3.31,3.22h-7.5l-1.76-5.1,2.63.88h3.65l.75-.4.4-.74v-1l-.61-.6-3.99-.74-2.29-2.21v-4.09l3.31-3.22h7.09l1.62,4.76-2.16-.87h0ZM340.76,257.37v15.43h-3.45l-5.6-9.19-.54-1.28.14,1.28v7.24l.6,2.01h-5.6l.61-2.01v-13.48l-.75-2.01h5.47l4.46,7.38.47,1.28-.14-1.28v-5.37l-.61-2.01h5.47s-.54,2.01-.54,2.01ZM347.79,272.79l.6-2.01v-13.48l-.6-2.01h6.21l-.61,2.01v13.48l.61,2.01h-6.21ZM369.01,257.37v10.93l.27,1.28-3.31,3.21h-6.49l-1.75-5.09,3.04,1.01h1.08l1.56-.74.6-1.27v-9.13l-.75-2.21h6.35l-.61,2.01h0ZM386.64,272.79h-11.08l.61-2.01v-13.48l-.61-2.01h11.08l3.58,3.49v10.46l-3.58,3.55ZM385.08,261.05l-.61-1.27-1.28-.6h-1.62l-.27.27v8.85l.4.4h1.56l1.28-.6.61-1.27v-5.77s-.07,0-.07,0ZM407.45,272.79h-11.08l.61-2.01v-13.48l-.61-2.01h10.67l1.62,4.76-2.23-.74h-4.39l-.2.27v1.74l.27.27h1.62l1.89-.6v5.23l-1.89-.6h-1.62l-.27.27v2.35l.4.4h4.26l2.63-.87s-1.68,5.03-1.68,5.03ZM423.46,272.79l-1.89-5.63-.54-.27h-1.42l-.27.27v3.62l.61,2.01h-6.09l.61-2.01v-13.48l-.61-2.01h11.08l3.31,3.21v4.83l-2.3,2.22,1.76,4.76,1.42,2.35h-5.67v.13ZM423.32,260.86l-.54-1.01-1.02-.47h-2.16l-.27.27v3.08l.27.27h2.16l1.01-.47.54-1s0-.67,0-.67ZM454.95,272.79h-11.08l.61-2.01v-13.48l-.61-2.01h10.67l1.62,4.76-2.23-.74h-4.39l-.2.27v1.74l.27.27h1.62l1.89-.6v5.23l-1.89-.6h-1.62l-.27.27v2.35l.4.4h4.26l2.63-.87s-1.68,5.03-1.68,5.03ZM475.75,257.37v15.43h-3.45l-5.61-9.19-.47-1.28.14,1.28v7.24l.61,2.01h-5.61l.61-2.01v-13.48l-.75-2.01h5.47l4.46,7.38.54,1.28-.14-1.28v-5.37l-.6-2.01h5.47s-.67,2.01-.67,2.01ZM503.38,272.79h-11.28l.61-2.01v-13.48l-.61-2.01h11.28l2.78,2.75v3.36l-1.9,1.88,2.17,2.14v4.36l-3.04,3.02ZM501.15,260.18l-.4-.74-.74-.34h-2.16l-.27.27v2.21l.27.27h2.16l.74-.4.41-.74v-.54h0ZM501.29,266.83l-.4-.74-1.01-.47h-2.03l-.27.27v2.75l.4.4h1.89l1.01-.47.4-.74s0-1,0-1ZM521.29,272.8l.27-2.01-.41-1.48-.27-.27h-4.19l-.27.27-.4,1.48.27,2.01h-5.88l1.01-2.01,3.58-13.81-.41-1.61h8.65l-.41,1.61,3.58,13.82,1.01,2.01s-6.15,0-6.15,0ZM518.92,259.72l-.13-.87-.14.88-1.29,5.36.27.27h2.29l.27-.27s-1.29-5.37-1.29-5.37ZM541.22,272.79l-1.89-5.63-.54-.27h-1.42l-.27.27v3.62l.61,2.01h-6.08l.61-2.01v-13.48l-.61-2.01h11.08l3.31,3.21v4.83l-2.29,2.22,1.75,4.76,1.42,2.35h-5.68v.13ZM541.15,260.86l-.54-1.01-1.01-.47h-2.16l-.27.2v3.09l.27.27h2.16l1.01-.47.54-1s0-.6,0-.6ZM563.59,272.79h-11.28l.61-2.01v-13.48l-.61-2.01h11.28l2.77,2.75v3.36l-1.89,1.88,2.16,2.14v4.36l-3.04,3.02ZM561.29,260.18l-.4-.74-.75-.4h-2.16l-.27.27v2.22l.27.27h2.16l.75-.4.4-.74v-.47ZM561.42,266.83l-.41-.74-1.01-.47h-2.03l-.27.27v2.75l.4.4h1.89l1.01-.47.41-.74s0-1,0-1ZM572.84,272.79l.61-2.01v-13.48l-.61-2.01h6.22l-.61,2.01v13.48l.61,2.01h-6.22ZM596.48,272.79h-11.08l.61-2.01v-13.48l-.61-2.01h10.67l1.62,4.76-2.23-.74h-4.39l-.2.27v1.74l.27.27h1.62l1.89-.6v5.23l-1.89-.6h-1.62l-.27.27v2.35l.4.4h4.26l2.63-.87s-1.69,5.03-1.69,5.03ZM612.5,272.79l-1.89-5.63-.54-.27h-1.42l-.27.27v3.62l.61,2.01h-6.08l.6-2.01v-13.48l-.6-2.01h11.08l3.31,3.21v4.83l-2.3,2.22,1.76,4.76,1.42,2.35h-5.67v.13ZM612.36,260.86l-.54-1.01-1.01-.47h-2.16l-.27.27v3.08l.27.27h2.16l1.01-.47.54-1s0-.67,0-.67ZM541.15,58.32c0-4.16,3.38-7.65,7.7-7.65,4.17-.05,7.58,3.3,7.63,7.46,0,.04,0,.08,0,.11v.07c0,4.16-3.37,7.58-7.7,7.58-4.17.04-7.59-3.31-7.64-7.48,0-.03,0-.07,0-.1ZM555.68,58.25c0-3.82-2.98-6.84-6.82-6.84s-6.9,3.08-6.9,6.84v.07c0,3.76,2.98,6.84,6.83,6.84s6.89-3.08,6.89-6.91ZM545.74,54.1h3.58c1.08,0,1.89.33,2.43.87.45.44.69,1.05.68,1.68v.07c0,1.27-.75,2.08-1.89,2.42l2.16,3.02h-1.82l-1.96-2.75h-1.68v2.75h-1.56v-8.04s.07,0,.07,0ZM549.26,57.98c1.01,0,1.55-.47,1.55-1.21v-.06c0-.81-.61-1.21-1.55-1.21h-1.96v2.55h1.96s0-.07,0-.07Z"/></g></svg>