<?xml version="1.0" encoding="UTF-8"?><svg id="a" xmlns="http://www.w3.org/2000/svg" viewBox="0 0 1107.37 193.68"><defs><style>.b{fill:#e9c664;}</style></defs><path class="b" d="M335.81,6.23l19.77,60.85h63.98c8.73,0,12.36,11.17,5.3,16.3l-51.76,37.61,19.77,60.85c2.7,8.3-6.8,15.2-13.87,10.07l-51.76-37.61-51.76,37.61c-7.06,5.13-16.56-1.77-13.87-10.07l19.77-60.85-51.76-37.61c-7.06-5.13-3.43-16.3,5.3-16.3h63.98s19.77-60.85,19.77-60.85c2.7-8.3,14.44-8.3,17.14,0Z"/><path class="b" d="M109.92,6.23l19.77,60.85h63.98c8.73,0,12.36,11.17,5.3,16.3l-51.76,37.61,19.77,60.85c2.7,8.3-6.8,15.2-13.87,10.07l-51.76-37.61-51.76,37.61c-7.06,5.13-16.56-1.77-13.87-10.07l19.77-60.85L3.73,83.38c-7.06-5.13-3.43-16.3,5.3-16.3h63.98S92.78,6.23,92.78,6.23c2.7-8.3,14.44-8.3,17.14,0Z"/><path class="b" d="M560.56,6.23l19.77,60.85h63.98c8.73,0,12.36,11.17,5.3,16.3l-51.76,37.61,19.77,60.85c2.7,8.3-6.8,15.2-13.87,10.07l-51.76-37.61-51.76,37.61c-7.06,5.13-16.56-1.77-13.87-10.07l19.77-60.85-51.76-37.61c-7.06-5.13-3.43-16.3,5.3-16.3h63.98s19.77-60.85,19.77-60.85c2.7-8.3,14.44-8.3,17.14,0Z"/><path class="b" d="M787,6.23l19.77,60.85h63.98c8.73,0,12.36,11.17,5.3,16.3l-51.76,37.61,19.77,60.85c2.7,8.3-6.8,15.2-13.87,10.07l-51.76-37.61-51.76,37.61c-7.06,5.13-16.56-1.77-13.87-10.07l19.77-60.85-51.76-37.61c-7.06-5.13-3.43-16.3,5.3-16.3h63.98s19.77-60.85,19.77-60.85c2.7-8.3,14.44-8.3,17.14,0Z"/><path class="b" d="M1011.76,6.23l19.77,60.85h63.98c8.73,0,12.36,11.17,5.3,16.3l-51.76,37.61,19.77,60.85c2.7,8.3-6.8,15.2-13.87,10.07l-51.76-37.61-51.76,37.61c-7.06,5.13-16.56-1.77-13.87-10.07l19.77-60.85-51.76-37.61c-7.06-5.13-3.43-16.3,5.3-16.3h63.98s19.77-60.85,19.77-60.85c2.7-8.3,14.44-8.3,17.14,0Z"/></svg>