<?xml version="1.0" encoding="utf-8"?>
<!-- Generator: Adobe Illustrator 19.2.1, SVG Export Plug-In . SVG Version: 6.00 Build 0)  -->
<svg version="1.1" id="layer" xmlns="http://www.w3.org/2000/svg" xmlns:xlink="http://www.w3.org/1999/xlink" x="0px" y="0px"
	 viewBox="0 0 652 652" style="enable-background:new 0 0 652 652;" xml:space="preserve">
<style type="text/css">
	.st0{clip-path:url(#SVGID_2_);fill:url(#SVGID_3_);}
	.st1{fill:#FCC800;}
	.st2{fill:#FFFFFF;}
	.st3{fill:#040000;}
</style>
<g>
	<defs>
		<path id="SVGID_1_" d="M80,202.8c-28.8,0-52.3,23.5-52.3,52.3V345c0,28.8,23.5,52.3,52.3,52.3h490.5c28.8,0,52.3-23.5,52.3-52.3
			v-89.9c0-28.8-23.5-52.3-52.3-52.3H80z"/>
	</defs>
	<clipPath id="SVGID_2_">
		<use xlink:href="#SVGID_1_"  style="overflow:visible;"/>
	</clipPath>
	
		<linearGradient id="SVGID_3_" gradientUnits="userSpaceOnUse" x1="118.195" y1="637.1805" x2="127.9058" y2="637.1805" gradientTransform="matrix(22.0197 -38.1393 -38.1393 -22.0197 21917.3145 19023.627)">
		<stop  offset="0" style="stop-color:#868582"/>
		<stop  offset="0.1263" style="stop-color:#9E9E9B"/>
		<stop  offset="0.3511" style="stop-color:#C5C5C3"/>
		<stop  offset="0.468" style="stop-color:#D4D4D2"/>
		<stop  offset="1" style="stop-color:#868582"/>
	</linearGradient>
	<polygon class="st0" points="-56.6,348.7 176.4,-54.9 707,251.4 474,655 	"/>
</g>
<g>
	<path class="st1" d="M570.4,397.3v-2.5H80c-13.7,0-26.2-5.6-35.2-14.6c-9-9.1-14.6-21.5-14.6-35.2v-89.9c0-13.7,5.6-26.2,14.6-35.2
		c9.1-9.1,21.5-14.7,35.2-14.7h490.5c13.7,0,26.2,5.6,35.2,14.7c9.1,9,14.7,21.5,14.7,35.2V345c0,13.7-5.6,26.2-14.7,35.2
		c-9,9-21.5,14.6-35.2,14.6V397.3v2.5c30.1,0,54.8-24.6,54.8-54.8v-89.9c0-30.1-24.6-54.8-54.8-54.8H80c-30.1,0-54.8,24.6-54.8,54.8
		V345c0,30.1,24.6,54.8,54.8,54.8h490.5V397.3z"/>
	<path class="st2" d="M565.5,381H84.9c-18.9,0-34.3-15.4-34.3-34.3v-93.2c0-18.9,15.4-34.3,34.3-34.3h480.7
		c18.9,0,34.3,15.4,34.3,34.3v93.2C599.9,365.5,584.4,381,565.5,381"/>
	<path class="st3" d="M99,262.9c-1.7-5.2-4.4-5.2-6.1-7c-1.7-0.9-3.5-2.6-3.5-4.4c0-2.6,1.7-2.6,4.4-2.6h34.1c2.6,0,3.5,0,3.5,2.6
		c0,1.7-1.7,4.4-4.4,4.4c-4.4,1.7-4.4,2.6-4.4,6.1c0,0.9,1.7,3.5,3.5,8.7l11.4,34.9c0.9,0.9,1.7,3.5,2.6,3.5c0,0,0-2.6,0.9-4.4
		l14-34.1l-2.6-7.9c-1.7-5.2-4.4-5.2-7-7c-0.9-0.9-2.6-2.6-2.6-4.4c0-2.6,1.7-2.6,3.5-2.6c6.1,0,33.2-0.9,38.4-0.9
		c2.6,0,4.4,0,4.4,2.6c0,2.6-2.6,4.4-4.4,5.2c-4.4,0.9-7,3.5-7,5.2c0,2.6,0,7,0.9,9.6l11.4,32.3c0.9,1.7,0.9,2.6,1.7,2.6
		c0.9,0,1.7-2.6,2.6-5.2l10.5-30.6c1.7-4.4-3.5-9.6-6.1-12.2c-2.6-1.7-4.4-4.4-4.4-5.2c0-2.6,1.7-2.6,3.5-2.6h33.2
		c1.7,0,3.5,0,3.5,2.6c0,1.7-3.5,3.5-6.1,6.1c-4.4,4.4-2.6,4.4-7,14L194.2,345c-3.5,7.9-9.6,7.9-11.4,2.6l-16.6-47.2
		c-0.9-2.6-1.7-4.4-1.7-4.4c-0.9,0-1.7,1.7-2.6,4.4l-21,45.4c-3.5,7-8.7,7-10.5,0.9L99,262.9z"/>
	<path class="st3" d="M266.5,250.7c2.6-5.2,11.4-3.5,12.2-1.7l34.9,82.1c2.6,6.1,5.2,12.2,8.7,12.2c3.5,0.9,5.2,3.5,5.2,6.1
		c0,2.6-1.7,2.6-4.4,2.6h-38.4c-5.2,0-6.1-1.7-6.1-3.5c0-1.7,0.9-5.2,2.6-5.2c3.5-0.9,7.9-2.6,7-6.1c-0.9-4.4-1.7-8.7-2.6-12.2
		c-0.9-2.6-2.6-3.5-9.6-3.5l-22.7,0.9c-3.5,0-2.6,2.6-8.7,16.6c-0.9,2.6,2.6,1.7,5.2,3.5c3.5,0.9,7,2.6,7,5.2c0,1.7-1.7,4.4-4.4,4.4
		h-31.4c-1.7,0-2.6-0.9-2.6-3.5c0-2.6,2.6-4.4,5.2-5.2c3.5,0,3.5-1.7,4.4-4.4L266.5,250.7z M257.7,303.1c-1.7,1.7-1.7,3.5-1.7,4.4
		c0,0.9,2.6,1.7,6.1,1.7h11.4c5.2,0,7,0,7-0.9c0-0.9-0.9-3.5-2.6-6.1l-7-20.1c-0.9-1.7-1.7-3.5-2.6-3.5s-2.6,3.5-2.6,4.4
		L257.7,303.1z"/>
	<path class="st3" d="M403.6,307.5c2.6,0,2.6,3.5,2.6,5.2v22.7c0,7-1.7,8.7-7.9,8.7c-1.7,0-3.5,1.7-3.5,4.4c0,4.4,2.6,3.5,5.2,3.5
		c6.1,0,32.3,0.9,38.4,0.9c1.7,0,4.4-0.9,4.4-3.5c0-2.6-1.7-3.5-3.5-4.4c-6.1-1.7-6.1-6.1-6.1-10.5v-67.2c0-8.7,2.6-11.4,8.7-11.4
		c1.7,0,3.5-1.7,3.5-3.5c0-2.6-1.7-3.5-6.1-3.5h-40.2c-4.4,0-4.4,1.7-4.4,5.2c0,2.6,2.6,3.5,4.4,3.5c5.2,1.7,7,3.5,7,8.7v25.3
		c0,2.6-0.9,4.4-5.2,4.4l-22.7-0.9c-3.5,0-5.2-0.9-5.2-4.4v-25.3c0-4.4,1.7-6.1,7.9-7.9c0.9-0.9,3.5-1.7,3.5-3.5
		c0-3.5,0-5.2-3.5-5.2h-41c-3.5,0-5.2,0-5.2,2.6c0,2.6,0.9,3.5,2.6,3.5c7,0.9,8.7,2.6,8.7,12.2v66.4c0,5.2,0,9.6-5.2,11.4
		c-1.7,0-3.5,1.7-3.5,3.5c0,2.6,1.7,3.5,3.5,3.5h38.4c2.6,0,5.2,0.9,5.2-4.4c0-2.6-1.7-3.5-3.5-4.4c-5.2,0-7-1.8-7-8.7v-21.8
		c-0.9-1.7,0-5.2,2.6-5.2H403.6z"/>
	<path class="st3" d="M498.5,334.5c0,4.4,0.9,7,2.6,7.9v0.9h0.9c29.7,0,34.1,0.9,39.3-23.6c0,0-0.9-3.5,2.6-3.5
		c2.6,0,1.7,2.6,1.7,2.6v29.7c0,0-0.9,2.6-0.9,3.5c-0.9,0.9-4.4,0.9-4.4,0.9h-73.3c-1.7,0-5.2-0.9-5.2-3.5c0-2.6,2.6-3.5,3.5-4.4
		c6.1-1.7,6.1-6.1,6.1-10.5v-67.2c0-8.7-2.6-11.4-8.7-11.4c-1.7,0-2.6-1.7-2.6-3.5c0-2.6,0.9-3.5,5.2-3.5h41c3.5,0,3.5,1.7,3.5,5.2
		c0,2.6-2.6,3.5-4.4,3.5c-5.2,1.7-7,3.5-7,8.7V334.5z"/>
	<path class="st3" d="M542.7,247.2c-10.5,0-18.3,7.9-18.3,18.3c0,10.5,7.9,18.3,18.3,18.3c10.5,0,18.3-7.9,18.3-18.3
		C561,255.1,553.1,247.2,542.7,247.2 M541.8,251.6c7.9,0,14,5.2,14,14c0,7.9-6.1,14-13.1,14c-7.9,0-13.1-6.1-13.1-14
		C529.6,257.7,534.8,251.6,541.8,251.6 M534.8,255.1v20.1h4.4v-7.9h2.6l4.4,7.9h5.2l-5.2-8.7c3.5,0,4.4-1.7,4.4-5.2
		c0-3.5-2.6-6.1-7.9-6.1H534.8z M539.2,263.8v-5.2h4.4c1.7,0,2.6,0.9,2.6,2.6c0,1.7-0.9,2.6-2.6,2.6H539.2z"/>
</g>
<g>
	<path class="st3" d="M585.5,453.7h-13.8v-29.3H568v33.3h17.5V453.7z M533.6,424.3h-4l-10.9,33.3h4l3.1-10.1h11.9l3.3,10.1h4.2
		L533.6,424.3z M526.8,444l4.8-15.4l5,15.4H526.8z M495.8,424.3h-3.6v26.3l-14.8-26.3h-3.8v33.3h3.6v-26.3l14.8,26.3h3.8V424.3z
		 M428.3,450.9c-1.8-2.4-2.7-5.7-2.7-9.9c0-4.2,0.9-7.5,2.7-9.9c1.8-2.4,4.2-3.5,7-3.5c2.8,0,5.1,1.2,6.9,3.5
		c1.8,2.4,2.7,5.7,2.7,9.9c0,4.2-0.9,7.5-2.7,9.9c-1.8,2.4-4.1,3.5-7,3.5C432.4,454.4,430.1,453.3,428.3,450.9 M425.5,428.5
		c-2.5,3.1-3.8,7.3-3.8,12.5c0,5.2,1.3,9.3,3.8,12.5c2.5,3.2,5.8,4.7,9.8,4.7c4,0,7.2-1.6,9.7-4.7c2.5-3.1,3.8-7.3,3.8-12.5
		c0-5.2-1.3-9.3-3.8-12.5c-2.5-3.2-5.8-4.7-9.7-4.7C431.3,423.8,428,425.3,425.5,428.5 M396.5,424.3h-3.8v33.3h3.8V424.3z
		 M364.4,455.4c1.9-1.9,2.9-4.3,2.9-7.1c0-2.3-0.5-4.1-1.6-5.4c-1.1-1.3-2.3-2.3-3.8-3c-1.5-0.6-3.5-1.3-6-1.9
		c-2.5-0.7-4.2-1.3-5.2-2c-0.9-0.7-1.4-1.7-1.4-3.1c0-1.5,0.6-2.8,1.7-3.7c1.1-0.9,2.8-1.4,4.8-1.4c4.3,0,6.7,2,7,6h3.6
		c-0.1-3.2-1.1-5.6-3.1-7.4c-2-1.7-4.5-2.6-7.7-2.6c-3,0-5.5,0.9-7.3,2.6c-1.8,1.7-2.7,3.9-2.7,6.6c0,2.4,0.7,4.3,2.1,5.7
		c1.4,1.4,3.7,2.6,7,3.4c3.2,0.8,5.5,1.6,6.8,2.5c1.3,0.8,2,2.2,2,4c0,1.7-0.6,3.1-1.9,4.1c-1.3,1-3,1.5-5.1,1.5
		c-2.2,0-4.1-0.6-5.7-1.8c-1.6-1.2-2.4-3-2.6-5.5h-3.6c0.1,3.3,1.1,6,3.1,8.1c2,2.1,5,3.2,8.9,3.2
		C359.9,458.2,362.4,457.3,364.4,455.4 M318.2,455.4c1.9-1.9,2.9-4.3,2.9-7.1c0-2.3-0.5-4.1-1.6-5.4c-1.1-1.3-2.3-2.3-3.8-3
		c-1.5-0.6-3.5-1.3-6-1.9c-2.5-0.7-4.2-1.3-5.2-2c-0.9-0.7-1.4-1.7-1.4-3.1c0-1.5,0.6-2.8,1.7-3.7c1.1-0.9,2.8-1.4,4.8-1.4
		c4.3,0,6.7,2,7,6h3.6c-0.1-3.2-1.1-5.6-3.1-7.4c-2-1.7-4.5-2.6-7.7-2.6c-3,0-5.5,0.9-7.3,2.6c-1.8,1.7-2.7,3.9-2.7,6.6
		c0,2.4,0.7,4.3,2.1,5.7c1.4,1.4,3.7,2.6,7,3.4c3.2,0.8,5.5,1.6,6.8,2.5c1.3,0.8,2,2.2,2,4c0,1.7-0.6,3.1-1.9,4.1
		c-1.3,1-3,1.5-5.1,1.5c-2.2,0-4.1-0.6-5.7-1.8c-1.6-1.2-2.4-3-2.6-5.5h-3.6c0.1,3.3,1.1,6,3.1,8.1c2,2.1,5,3.2,8.9,3.2
		C313.8,458.2,316.3,457.3,318.2,455.4 M274.9,453.7h-17.4v-11.3h15.6v-4h-15.6v-10.2h16.7v-4h-20.4v33.3h21.1V453.7z M229,424.3
		h-19.1v33.3h3.7v-15.1h13.3v-4h-13.3v-10.3H229V424.3z M164.7,450.9c-1.8-2.4-2.7-5.7-2.7-9.9c0-4.2,0.9-7.5,2.7-9.9
		c1.8-2.4,4.1-3.5,7-3.5c2.8,0,5.1,1.2,6.9,3.5c1.8,2.4,2.7,5.7,2.7,9.9c0,4.2-0.9,7.5-2.7,9.9c-1.8,2.4-4.1,3.5-7,3.5
		C168.8,454.4,166.5,453.3,164.7,450.9 M161.9,428.5c-2.5,3.1-3.8,7.3-3.8,12.5c0,5.2,1.3,9.3,3.8,12.5c2.5,3.2,5.8,4.7,9.8,4.7
		c4,0,7.2-1.6,9.7-4.7c2.5-3.1,3.8-7.3,3.8-12.5c0-5.2-1.3-9.3-3.8-12.5c-2.5-3.2-5.8-4.7-9.7-4.7
		C167.7,423.8,164.4,425.3,161.9,428.5 M114.8,428h8.9c4,0,6.1,1.9,6.1,5.7c0,2.1-0.5,3.6-1.6,4.5s-2.7,1.3-5.1,1.3h-8.4V428z
		 M131.8,448.6c-1-3.3-2.5-5.3-4.5-6v-0.1c2-0.5,3.5-1.5,4.7-3c1.1-1.5,1.7-3.5,1.7-5.8c0-2-0.4-3.8-1.3-5.4c-0.9-1.6-2-2.7-3.4-3.2
		c-1.4-0.5-3.2-0.7-5.4-0.7H111v33.3h3.7v-14.2h6.9c1.4,0,2.7,0.5,3.8,1.5c1.1,1,1.9,2.3,2.4,3.9l2.7,8.9h4.1L131.8,448.6z
		 M68.6,428.3h7.1c1.6,0,2.9,0.1,3.8,0.4c0.9,0.3,1.6,0.9,2.2,2c0.6,1,0.8,2.2,0.8,3.5c0,2-0.5,3.5-1.5,4.6c-1,1.1-2.7,1.6-5.1,1.6
		h-7.2V428.3z M64.9,457.6h3.7v-13.3h7.1c3.4,0,6.1-0.9,7.9-2.6c1.8-1.7,2.7-4.3,2.7-7.7c0-2.1-0.5-4-1.4-5.7
		c-0.9-1.7-2.2-2.8-3.7-3.3c-1.6-0.5-3.5-0.8-5.8-0.8H64.9V457.6z"/>
</g>
</svg>
