<?xml version="1.0" encoding="UTF-8"?><svg id="a" xmlns="http://www.w3.org/2000/svg" xmlns:xlink="http://www.w3.org/1999/xlink" viewBox="0 0 652 322"><defs><style>.d{fill:none;}.e{fill:url(#c);}.f{fill:#fcc800;}.g{fill:#040000;}.h{fill:#fff;}.i{clip-path:url(#b);}</style><clipPath id="b"><rect class="d" x="27.7" y="30.8" width="595.1" height="194.5" rx="52.3" ry="52.3"/></clipPath><linearGradient id="c" x1="144.41" y1="-183.99" x2="154.12" y2="-183.99" gradientTransform="translate(4055.56 9872.31) rotate(-60) scale(44.04)" gradientUnits="userSpaceOnUse"><stop offset="0" stop-color="#868582"/><stop offset=".13" stop-color="#9e9e9b"/><stop offset=".35" stop-color="#c5c5c3"/><stop offset=".47" stop-color="#d4d4d2"/><stop offset="1" stop-color="#868582"/></linearGradient></defs><g class="i"><polygon class="e" points="-56.6 176.7 176.4 -226.9 707 79.4 474 483 -56.6 176.7"/></g><path class="f" d="M570.4,225.3v-2.5H80c-13.7,0-26.2-5.6-35.2-14.6-9-9.1-14.6-21.5-14.6-35.2v-89.9c0-13.7,5.6-26.2,14.6-35.2,9.1-9.1,21.5-14.7,35.2-14.7h490.5c13.7,0,26.2,5.6,35.2,14.7,9.1,9,14.7,21.5,14.7,35.2v89.9c0,13.7-5.6,26.2-14.7,35.2-9,9-21.5,14.6-35.2,14.6v5c30.1,0,54.8-24.6,54.8-54.8v-89.9c0-30.1-24.6-54.8-54.8-54.8H80c-30.1,0-54.8,24.6-54.8,54.8v89.9c0,30.1,24.6,54.8,54.8,54.8h490.5v-2.5h-.1Z"/><path class="h" d="M565.5,209H84.9c-18.9,0-34.3-15.4-34.3-34.3v-93.2c0-18.9,15.4-34.3,34.3-34.3h480.7c18.9,0,34.3,15.4,34.3,34.3v93.2c0,18.8-15.5,34.3-34.4,34.3"/><path class="g" d="M99,90.9c-1.7-5.2-4.4-5.2-6.1-7-1.7-.9-3.5-2.6-3.5-4.4,0-2.6,1.7-2.6,4.4-2.6h34.1c2.6,0,3.5,0,3.5,2.6,0,1.7-1.7,4.4-4.4,4.4-4.4,1.7-4.4,2.6-4.4,6.1,0,.9,1.7,3.5,3.5,8.7l11.4,34.9c.9.9,1.7,3.5,2.6,3.5,0,0,0-2.6.9-4.4l14-34.1-2.6-7.9c-1.7-5.2-4.4-5.2-7-7-.9-.9-2.6-2.6-2.6-4.4,0-2.6,1.7-2.6,3.5-2.6,6.1,0,33.2-.9,38.4-.9,2.6,0,4.4,0,4.4,2.6s-2.6,4.4-4.4,5.2c-4.4.9-7,3.5-7,5.2,0,2.6,0,7,.9,9.6l11.4,32.3c.9,1.7.9,2.6,1.7,2.6.9,0,1.7-2.6,2.6-5.2l10.5-30.6c1.7-4.4-3.5-9.6-6.1-12.2-2.6-1.7-4.4-4.4-4.4-5.2,0-2.6,1.7-2.6,3.5-2.6h33.2c1.7,0,3.5,0,3.5,2.6,0,1.7-3.5,3.5-6.1,6.1-4.4,4.4-2.6,4.4-7,14l-27.2,72.8c-3.5,7.9-9.6,7.9-11.4,2.6l-16.6-47.2c-.9-2.6-1.7-4.4-1.7-4.4-.9,0-1.7,1.7-2.6,4.4l-21,45.4c-3.5,7-8.7,7-10.5.9l-31.4-83.8Z"/><path class="g" d="M266.5,78.7c2.6-5.2,11.4-3.5,12.2-1.7l34.9,82.1c2.6,6.1,5.2,12.2,8.7,12.2,3.5.9,5.2,3.5,5.2,6.1s-1.7,2.6-4.4,2.6h-38.4c-5.2,0-6.1-1.7-6.1-3.5,0-1.7.9-5.2,2.6-5.2,3.5-.9,7.9-2.6,7-6.1-.9-4.4-1.7-8.7-2.6-12.2-.9-2.6-2.6-3.5-9.6-3.5l-22.7.9c-3.5,0-2.6,2.6-8.7,16.6-.9,2.6,2.6,1.7,5.2,3.5,3.5.9,7,2.6,7,5.2,0,1.7-1.7,4.4-4.4,4.4h-31.4c-1.7,0-2.6-.9-2.6-3.5s2.6-4.4,5.2-5.2c3.5,0,3.5-1.7,4.4-4.4l38.5-88.3ZM257.7,131.1c-1.7,1.7-1.7,3.5-1.7,4.4s2.6,1.7,6.1,1.7h11.4c5.2,0,7,0,7-.9s-.9-3.5-2.6-6.1l-7-20.1c-.9-1.7-1.7-3.5-2.6-3.5s-2.6,3.5-2.6,4.4l-8,20.1Z"/><path class="g" d="M403.6,135.5c2.6,0,2.6,3.5,2.6,5.2v22.7c0,7-1.7,8.7-7.9,8.7-1.7,0-3.5,1.7-3.5,4.4,0,4.4,2.6,3.5,5.2,3.5,6.1,0,32.3.9,38.4.9,1.7,0,4.4-.9,4.4-3.5s-1.7-3.5-3.5-4.4c-6.1-1.7-6.1-6.1-6.1-10.5v-67.2c0-8.7,2.6-11.4,8.7-11.4,1.7,0,3.5-1.7,3.5-3.5,0-2.6-1.7-3.5-6.1-3.5h-40.2c-4.4,0-4.4,1.7-4.4,5.2,0,2.6,2.6,3.5,4.4,3.5,5.2,1.7,7,3.5,7,8.7v25.3c0,2.6-.9,4.4-5.2,4.4l-22.7-.9c-3.5,0-5.2-.9-5.2-4.4v-25.3c0-4.4,1.7-6.1,7.9-7.9.9-.9,3.5-1.7,3.5-3.5,0-3.5,0-5.2-3.5-5.2h-41c-3.5,0-5.2,0-5.2,2.6s.9,3.5,2.6,3.5c7,.9,8.7,2.6,8.7,12.2v66.4c0,5.2,0,9.6-5.2,11.4-1.7,0-3.5,1.7-3.5,3.5,0,2.6,1.7,3.5,3.5,3.5h38.4c2.6,0,5.2.9,5.2-4.4,0-2.6-1.7-3.5-3.5-4.4-5.2,0-7-1.8-7-8.7v-21.8c-.9-1.7,0-5.2,2.6-5.2h27.1v.1Z"/><path class="g" d="M498.5,162.5c0,4.4.9,7,2.6,7.9v.9h.9c29.7,0,34.1.9,39.3-23.6,0,0-.9-3.5,2.6-3.5,2.6,0,1.7,2.6,1.7,2.6v29.7s-.9,2.6-.9,3.5c-.9.9-4.4.9-4.4.9h-73.3c-1.7,0-5.2-.9-5.2-3.5s2.6-3.5,3.5-4.4c6.1-1.7,6.1-6.1,6.1-10.5v-67.2c0-8.7-2.6-11.4-8.7-11.4-1.7,0-2.6-1.7-2.6-3.5,0-2.6.9-3.5,5.2-3.5h41c3.5,0,3.5,1.7,3.5,5.2,0,2.6-2.6,3.5-4.4,3.5-5.2,1.7-7,3.5-7,8.7v68.2h.1Z"/><path class="g" d="M542.7,75.2c-10.5,0-18.3,7.9-18.3,18.3s7.9,18.3,18.3,18.3,18.3-7.9,18.3-18.3-7.9-18.3-18.3-18.3M541.8,79.6c7.9,0,14,5.2,14,14,0,7.9-6.1,14-13.1,14-7.9,0-13.1-6.1-13.1-14,0-7.9,5.2-14,12.2-14M534.8,83.1v20.1h4.4v-7.9h2.6l4.4,7.9h5.2l-5.2-8.7c3.5,0,4.4-1.7,4.4-5.2s-2.6-6.1-7.9-6.1h-7.9v-.1ZM539.2,91.8v-5.2h4.4c1.7,0,2.6.9,2.6,2.6s-.9,2.6-2.6,2.6h-4.4Z"/><path class="h" d="M585.5,281.7h-13.8v-29.3h-3.7v33.3h17.5v-4ZM533.6,252.3h-4l-10.9,33.3h4l3.1-10.1h11.9l3.3,10.1h4.2l-11.6-33.3ZM526.8,272l4.8-15.4,5,15.4h-9.8ZM495.8,252.3h-3.6v26.3l-14.8-26.3h-3.8v33.3h3.6v-26.3l14.8,26.3h3.8v-33.3ZM428.3,278.9c-1.8-2.4-2.7-5.7-2.7-9.9s.9-7.5,2.7-9.9c1.8-2.4,4.2-3.5,7-3.5s5.1,1.2,6.9,3.5c1.8,2.4,2.7,5.7,2.7,9.9s-.9,7.5-2.7,9.9c-1.8,2.4-4.1,3.5-7,3.5s-5.1-1.1-6.9-3.5M425.5,256.5c-2.5,3.1-3.8,7.3-3.8,12.5s1.3,9.3,3.8,12.5,5.8,4.7,9.8,4.7,7.2-1.6,9.7-4.7,3.8-7.3,3.8-12.5-1.3-9.3-3.8-12.5-5.8-4.7-9.7-4.7-7.3,1.5-9.8,4.7M396.5,252.3h-3.8v33.3h3.8v-33.3ZM364.4,283.4c1.9-1.9,2.9-4.3,2.9-7.1,0-2.3-.5-4.1-1.6-5.4s-2.3-2.3-3.8-3c-1.5-.6-3.5-1.3-6-1.9-2.5-.7-4.2-1.3-5.2-2-.9-.7-1.4-1.7-1.4-3.1,0-1.5.6-2.8,1.7-3.7,1.1-.9,2.8-1.4,4.8-1.4,4.3,0,6.7,2,7,6h3.6c-.1-3.2-1.1-5.6-3.1-7.4-2-1.7-4.5-2.6-7.7-2.6-3,0-5.5.9-7.3,2.6s-2.7,3.9-2.7,6.6c0,2.4.7,4.3,2.1,5.7,1.4,1.4,3.7,2.6,7,3.4,3.2.8,5.5,1.6,6.8,2.5,1.3.8,2,2.2,2,4,0,1.7-.6,3.1-1.9,4.1s-3,1.5-5.1,1.5-4.1-.6-5.7-1.8c-1.6-1.2-2.4-3-2.6-5.5h-3.6c.1,3.3,1.1,6,3.1,8.1s5,3.2,8.9,3.2c3.3,0,5.8-.9,7.8-2.8M318.2,283.4c1.9-1.9,2.9-4.3,2.9-7.1,0-2.3-.5-4.1-1.6-5.4s-2.3-2.3-3.8-3c-1.5-.6-3.5-1.3-6-1.9-2.5-.7-4.2-1.3-5.2-2-.9-.7-1.4-1.7-1.4-3.1,0-1.5.6-2.8,1.7-3.7,1.1-.9,2.8-1.4,4.8-1.4,4.3,0,6.7,2,7,6h3.6c-.1-3.2-1.1-5.6-3.1-7.4-2-1.7-4.5-2.6-7.7-2.6-3,0-5.5.9-7.3,2.6s-2.7,3.9-2.7,6.6c0,2.4.7,4.3,2.1,5.7,1.4,1.4,3.7,2.6,7,3.4,3.2.8,5.5,1.6,6.8,2.5,1.3.8,2,2.2,2,4,0,1.7-.6,3.1-1.9,4.1s-3,1.5-5.1,1.5-4.1-.6-5.7-1.8c-1.6-1.2-2.4-3-2.6-5.5h-3.6c.1,3.3,1.1,6,3.1,8.1s5,3.2,8.9,3.2c3.4,0,5.9-.9,7.8-2.8M274.9,281.7h-17.4v-11.3h15.6v-4h-15.6v-10.2h16.7v-4h-20.4v33.3h21.1v-3.8h0ZM229,252.3h-19.1v33.3h3.7v-15.1h13.3v-4h-13.3v-10.3h15.4v-3.9ZM164.7,278.9c-1.8-2.4-2.7-5.7-2.7-9.9s.9-7.5,2.7-9.9,4.1-3.5,7-3.5,5.1,1.2,6.9,3.5c1.8,2.4,2.7,5.7,2.7,9.9s-.9,7.5-2.7,9.9-4.1,3.5-7,3.5-5.1-1.1-6.9-3.5M161.9,256.5c-2.5,3.1-3.8,7.3-3.8,12.5s1.3,9.3,3.8,12.5,5.8,4.7,9.8,4.7,7.2-1.6,9.7-4.7,3.8-7.3,3.8-12.5-1.3-9.3-3.8-12.5-5.8-4.7-9.7-4.7-7.3,1.5-9.8,4.7M114.8,256h8.9c4,0,6.1,1.9,6.1,5.7,0,2.1-.5,3.6-1.6,4.5s-2.7,1.3-5.1,1.3h-8.4v-11.5h.1ZM131.8,276.6c-1-3.3-2.5-5.3-4.5-6v-.1c2-.5,3.5-1.5,4.7-3,1.1-1.5,1.7-3.5,1.7-5.8,0-2-.4-3.8-1.3-5.4-.9-1.6-2-2.7-3.4-3.2-1.4-.5-3.2-.7-5.4-.7h-12.6v33.3h3.7v-14.2h6.9c1.4,0,2.7.5,3.8,1.5,1.1,1,1.9,2.3,2.4,3.9l2.7,8.9h4.1l-2.8-9.2ZM68.6,256.3h7.1c1.6,0,2.9.1,3.8.4s1.6.9,2.2,2c.6,1,.8,2.2.8,3.5,0,2-.5,3.5-1.5,4.6s-2.7,1.6-5.1,1.6h-7.2v-12.1h-.1ZM64.9,285.6h3.7v-13.3h7.1c3.4,0,6.1-.9,7.9-2.6s2.7-4.3,2.7-7.7c0-2.1-.5-4-1.4-5.7s-2.2-2.8-3.7-3.3c-1.6-.5-3.5-.8-5.8-.8h-10.5v33.4Z"/></svg>